<?xml version="1.0" encoding="UTF-8"?>
<svg baseProfile="tiny-ps" version="1.2" xmlns="http://www.w3.org/2000/svg" viewBox="0 0 334.51 334.51"><g transform="translate(0 57.07)"><path d="M107.39 27.53c.96.08 1.89-.29 2.59-1 1.3-1.35 1.26-3.49-.06-4.77-1.38-1.29-3.51-1.24-4.79.07-1.28 1.35-1.2 3.5.12 4.78.6.57 1.39.92 2.14.92M120.19 17.84c.9.07 1.86-.29 2.57-1 1.3-1.35 1.29-3.48 0-4.77-1.37-1.28-3.49-1.28-4.8.05-1.29 1.3-1.29 3.44.04 4.72.63.65 1.39.93 2.2 1ZM87.39 52.49c.95.06 1.93-.31 2.64-1.08 1.26-1.36 1.14-3.49-.2-4.78-1.39-1.21-3.53-1.14-4.79.25-1.21 1.39-1.14 3.53.26 4.74.59.57 1.31.86 2.1.88ZM99.1 38.03c1.28-1.38 1.18-3.5-.15-4.73-1.39-1.27-3.51-1.21-4.79.14-1.26 1.35-1.17 3.49.2 4.77.61.57 1.34.85 2.09.85.97.07 1.96-.28 2.66-1.03ZM80.76 66.44c.79.07 1.55-.22 2.09-.86.97-1.06.84-2.71-.25-3.69-1.05-.93-2.71-.83-3.65.28-.96 1.07-.83 2.7.23 3.63.43.43 1 .64 1.57.64ZM135.35 8.59c.8.06 1.56-.22 2.11-.87.97-1.06.85-2.7-.26-3.62-1.05-1-2.71-.85-3.63.21-.96 1.07-.85 2.71.2 3.64.47.43 1 .63 1.57.65ZM89.02 79.06c-1.3 1.52-1.13 3.84.43 5.13.68.57 1.53.86 2.38.86 1.02 0 2.05-.43 2.76-1.28 1.3-1.51 1.13-3.85-.42-5.13-1.54-1.28-3.85-1.15-5.14.43ZM167.12 7.29c.91 0 1.82-.29 2.52-1 1.45-1.35 1.53-3.7.14-5.13-1.4-1.49-3.7-1.57-5.16-.14-1.5 1.36-1.54 3.7-.14 5.13.71.8 1.64 1.14 2.63 1.14ZM99.7 64.26a3.72 3.72 0 0 0 .31 5.17c.7.58 1.56.93 2.42.93 1.02 0 2.04-.43 2.77-1.29 1.32-1.51 1.18-3.78-.35-5.13a3.596 3.596 0 0 0-5.14.31ZM111.98 55.42c.71.63 1.58.97 2.5.97.99 0 1.97-.43 2.7-1.22a3.653 3.653 0 0 0-.25-5.13c-1.48-1.35-3.82-1.28-5.14.23a3.64 3.64 0 0 0 .19 5.15M136.62 29.24c.71.7 1.66 1.01 2.57 1.01.96 0 1.92-.36 2.64-1.08 1.39-1.42 1.35-3.76-.08-5.15-1.43-1.4-3.75-1.4-5.15.02-1.43 1.42-1.41 3.77.02 5.2M153.61 18.12c.93 0 1.84-.35 2.55-1.06 1.45-1.42 1.5-3.7.09-5.13a3.643 3.643 0 0 0-5.2-.07 3.65 3.65 0 0 0-.04 5.16c.72.75 1.68 1.1 2.6 1.1M81.43 99.43c1.04 0 2.12-.43 2.83-1.35 1.28-1.55 1.04-3.85-.53-5.14a3.653 3.653 0 0 0-5.14.53c-1.28 1.55-1.04 3.9.52 5.18.65.52 1.48.79 2.31.79ZM124.2 42.21c.7.66 1.6 1 2.53 1s1.9-.35 2.62-1.14c1.41-1.46 1.36-3.78-.14-5.14-1.44-1.42-3.75-1.35-5.15.13v-.03c-1.4 1.46-1.31 3.79.14 5.17ZM150.18 54.43c1.03 0 2.1-.4 2.88-1.18 1.67-1.6 1.68-4.28.06-5.94-1.66-1.71-4.35-1.78-5.97-.14-1.67 1.63-1.69 4.27-.02 5.98.82.85 1.92 1.28 3.05 1.28M134.79 59.35c-1.61 1.65-1.58 4.35.1 5.98.85.86 1.91 1.28 3.01 1.28s2.14-.42 2.96-1.27c1.61-1.65 1.57-4.29-.1-5.92-1.67-1.67-4.32-1.71-5.97-.07M87.31 114.4c-1.47 1.76-1.28 4.42.53 5.92.82.71 1.8 1.07 2.76 1.07 1.22 0 2.37-.5 3.2-1.44 1.48-1.77 1.24-4.42-.54-5.97-1.81-1.5-4.43-1.36-5.95.42M101.94 106.62c1.16 0 2.3-.42 3.07-1.35 1.54-1.74 1.38-4.42-.4-5.98-1.75-1.56-4.42-1.43-5.92.28-1.55 1.78-1.37 4.41.41 5.99.78.71 1.79 1.06 2.84 1.06M122.72 71.82c-1.61 1.65-1.51 4.34.19 5.97.84.79 1.9 1.15 2.97 1.15s2.17-.42 3-1.28c1.59-1.65 1.48-4.29-.23-5.92a4.19 4.19 0 0 0-5.94.07ZM177.05 31.34c1 0 1.99-.36 2.76-1.07 1.71-1.54 1.83-4.2.25-5.91-1.57-1.79-4.25-1.93-5.97-.36-1.71 1.56-1.78 4.21-.2 5.92.85.96 2.01 1.43 3.16 1.43ZM117.11 90.27c1.56-1.71 1.43-4.42-.29-5.98-1.73-1.57-4.4-1.49-5.96.22-1.57 1.68-1.43 4.34.29 5.91.85.79 1.88 1.14 2.94 1.14 1.12 0 2.2-.43 3.03-1.28ZM191.59 17.63c.99 0 1.92-.36 2.72-1 1.73-1.55 1.89-4.21.32-5.99-1.52-1.75-4.18-1.92-5.91-.43-1.78 1.49-1.93 4.19-.37 5.91.85 1 2.03 1.5 3.23 1.5ZM162.68 42.47c1 0 2.02-.37 2.84-1.08 1.67-1.57 1.73-4.27.13-5.99-1.64-1.71-4.28-1.78-5.97-.2-1.69 1.57-1.75 4.2-.14 5.91a4.22 4.22 0 0 0 3.14 1.37ZM175.1 68.28c.98 0 1.96-.31 2.76-.99h-.01c1.76-1.56 1.9-4.2.33-5.98-1.55-1.71-4.25-1.92-5.97-.36-1.72 1.49-1.85 4.16-.29 5.92.86.95 2.01 1.42 3.18 1.42ZM115.19 126.51c1.1 0 2.19-.43 3.01-1.29 1.58-1.67 1.46-4.35-.25-5.95s-4.38-1.53-5.97.11c-1.58 1.71-1.46 4.36.25 5.98.85.78 1.88 1.14 2.96 1.14ZM159.72 72.16c-1.71 1.54-1.76 4.25-.18 5.97.85.93 2 1.4 3.15 1.4 1.01 0 2.01-.38 2.82-1.12 1.71-1.56 1.76-4.2.18-5.91-1.59-1.77-4.27-1.88-5.97-.34M100.64 131.79c-1.55 1.71-1.4 4.34.33 5.92.83.78 1.85 1.13 2.87 1.13 1.15 0 2.27-.43 3.1-1.35 1.56-1.71 1.4-4.4-.38-5.99-1.73-1.57-4.4-1.43-5.91.29ZM187.74 57.31c.92 0 1.89-.28 2.7-.92 1.74-1.54 1.91-4.2.38-5.98-1.5-1.79-4.18-1.99-5.92-.51-1.8 1.51-1.96 4.14-.43 5.92a4.27 4.27 0 0 0 3.27 1.48ZM123.61 107.27c-1.6 1.63-1.56 4.34.14 5.99.84.77 1.9 1.2 2.99 1.2s2.15-.43 2.97-1.28c1.6-1.64 1.53-4.28-.12-5.91-1.7-1.65-4.37-1.65-5.98 0M147.46 83.64a4.215 4.215 0 0 0-.05 5.96c.85.91 1.98 1.35 3.08 1.35s2.07-.38 2.88-1.14c1.65-1.6 1.72-4.27.07-5.98-1.6-1.72-4.28-1.78-5.97-.18ZM200.56 46.63c.91 0 1.86-.35 2.6-.96 1.83-1.47 2.02-4.11.54-5.95-1.53-1.79-4.17-2.08-5.96-.58-1.78 1.43-2.01 4.08-.53 5.92.84.99 2.1 1.57 3.35 1.57M141.41 95.45c-1.67-1.71-4.36-1.71-5.97-.08-1.66 1.58-1.66 4.28.02 5.91.84.86 1.96 1.29 3.03 1.29s2.14-.36 2.95-1.17c1.61-1.61 1.61-4.33-.02-5.95ZM213.54 36.08c.91 0 1.85-.29 2.58-.86 1.83-1.43 2.12-4.13.61-5.91-1.45-1.85-4.13-2.21-5.9-.77-1.83 1.47-2.1 4.11-.66 5.95a4.42 4.42 0 0 0 3.37 1.59M210.74 71.93c.8 0 1.56-.29 2.25-.79 1.59-1.2 1.88-3.48.69-5.13-1.25-1.56-3.55-1.85-5.12-.63-1.63 1.2-1.94 3.48-.69 5.13a3.7 3.7 0 0 0 2.88 1.43ZM200.19 81.19c1.57-1.27 1.85-3.56.57-5.13-1.24-1.59-3.57-1.85-5.13-.59-1.57 1.24-1.84 3.54-.57 5.15.72.86 1.81 1.36 2.85 1.36.81 0 1.65-.28 2.28-.78ZM121.77 143.54c-1.43 1.42-1.44 3.78-.02 5.2.72.72 1.65 1.07 2.6 1.07s1.86-.35 2.57-1.07c1.44-1.42 1.44-3.7 0-5.17-1.42-1.43-3.72-1.46-5.15-.03M134.05 129.28v.02c-1.45 1.4-1.49 3.71-.13 5.18.72.73 1.68 1.14 2.65 1.14.9 0 1.85-.36 2.55-1.05 1.44-1.37 1.49-3.71.07-5.15-1.35-1.45-3.71-1.49-5.15-.15ZM148.45 124.44c.88 0 1.81-.32 2.5-1a3.613 3.613 0 0 0 .19-5.13c-1.39-1.49-3.69-1.57-5.15-.21-1.51 1.35-1.57 3.71-.24 5.16.72.75 1.71 1.18 2.7 1.18M226.55 60.39c.81 0 1.54-.23 2.23-.72 1.59-1.21 1.9-3.49.73-5.12-1.19-1.57-3.5-1.93-5.12-.72-1.6 1.21-1.97 3.49-.74 5.09.71.97 1.81 1.47 2.89 1.47ZM175.57 96.72c-1.32-1.56-3.62-1.71-5.17-.4-1.49 1.33-1.71 3.61-.35 5.18.73.84 1.73 1.28 2.75 1.28.84 0 1.69-.28 2.4-.92 1.52-1.28 1.71-3.62.37-5.13ZM157.81 112.26c.72.81 1.72 1.21 2.71 1.21.87 0 1.73-.28 2.44-.92a3.61 3.61 0 0 0 .29-5.13c-1.31-1.51-3.65-1.65-5.15-.29-1.52 1.3-1.66 3.63-.29 5.13M185.28 92.23c.8 0 1.63-.28 2.33-.85v.02c1.56-1.3 1.75-3.58.47-5.15a3.64 3.64 0 0 0-5.14-.5c-1.56 1.3-1.75 3.63-.47 5.2.71.86 1.75 1.29 2.81 1.29ZM157.71 146.25c.86 0 1.71-.28 2.41-.92 1.53-1.36 1.68-3.64.31-5.13a3.59 3.59 0 0 0-5.14-.36c-1.48 1.36-1.64 3.64-.32 5.16.72.83 1.72 1.25 2.74 1.25M228.27 87.32a3.66 3.66 0 0 0 2.99 1.56c.71 0 1.47-.22 2.11-.65a3.69 3.69 0 0 0 .87-5.13c-1.15-1.63-3.44-2.05-5.09-.86a3.637 3.637 0 0 0-.89 5.07ZM148.45 155.79c1.51-1.34 1.59-3.68.24-5.13-1.38-1.5-3.68-1.64-5.15-.28-1.51 1.35-1.62 3.7-.25 5.2.71.79 1.71 1.15 2.69 1.15.87 0 1.74-.29 2.45-.93ZM216.11 95.45c.71 1 1.84 1.49 2.97 1.49.74 0 1.47-.21 2.15-.71 1.6-1.15 1.97-3.47.76-5.07-1.18-1.63-3.46-1.98-5.11-.8-1.61 1.17-1.98 3.45-.76 5.1ZM194.01 116.03c.76 0 1.57-.28 2.25-.8 1.6-1.25 1.86-3.54.61-5.15a3.63 3.63 0 0 0-5.13-.6c-1.58 1.28-1.85 3.56-.62 5.13.74.93 1.79 1.42 2.89 1.42M184.52 119.88c-1.28-1.57-3.57-1.78-5.14-.49-1.57 1.28-1.76 3.56-.47 5.13.71.91 1.75 1.35 2.83 1.35a3.6 3.6 0 0 0 2.3-.86c1.56-1.26 1.76-3.56.48-5.12ZM203.55 104.92c.72.93 1.77 1.43 2.89 1.43.75 0 1.55-.21 2.21-.72 1.62-1.2 1.92-3.53.68-5.13-1.19-1.63-3.47-1.93-5.11-.72a3.63 3.63 0 0 0-.66 5.13ZM169.64 135.92c.84 0 1.66-.29 2.34-.86 1.54-1.28 1.72-3.58.42-5.13-1.3-1.57-3.6-1.71-5.15-.43-1.55 1.29-1.71 3.63-.41 5.13.72.86 1.74 1.29 2.8 1.29M222.96 114.89c-.83 1.08-.66 2.57.41 3.36.43.34.93.55 1.45.55.71 0 1.41-.35 1.87-.91.84-1.06.67-2.57-.36-3.35-1.06-.85-2.53-.65-3.37.35M171.49 156.59c.43.35.91.49 1.45.49.71 0 1.41-.28 1.87-.9.84-1.02.67-2.51-.39-3.37-1.03-.78-2.5-.64-3.35.43-.81 1-.67 2.5.42 3.36ZM201.94 140.76c.64 0 1.33-.21 1.87-.64 1.35-1.05 1.63-3 .61-4.35-1.01-1.35-2.98-1.64-4.37-.58a3.077 3.077 0 0 0-.58 4.3c.6.84 1.54 1.26 2.48 1.26ZM216.1 125.66c-1-1.37-2.97-1.68-4.37-.67-1.33 1.02-1.65 2.95-.64 4.3.59.86 1.51 1.29 2.49 1.29.64 0 1.26-.21 1.82-.57 1.38-.99 1.71-2.92.7-4.34ZM185.75 144.47c-1.37 1.07-1.57 2.99-.53 4.35.59.78 1.53 1.16 2.43 1.16.68 0 1.38-.22 1.95-.66 1.31-1.05 1.57-3 .48-4.35a3.05 3.05 0 0 0-4.32-.5ZM21.67 195.31v-.1c5.1-.84 10.37-4.5 10.37-10.12 0-6.62-5.35-8.69-11.12-8.61-4.92.06-8.38.2-11.97.2-1.99 0-5.54-.14-8.96-.2v1.9l2.25.16c1.49.14 2.21.34 2.6.93.43.71.56 2.32.56 4.7v29.43c0 1.64-.24 3.56-1.38 4l-1.6.64v1.43c2.25-.07 4.46-.17 6.77-.17s4.46.1 6.76.17c13.59.36 18.21-8.2 18.21-14.25 0-7.27-6.14-9.9-12.5-10.09Zm-10.38-15.85c1.77-.43 3.56-.5 5.23-.5 5.23 0 9.39 1.37 9.39 7.34s-4.79 8.41-10.2 8.41c-1.85 0-3.28-.07-4.41-.14v-15.1Zm5.23 37.6c-1.67 0-3.47-.04-5.23-.49v-19.58c1.14-.07 2.42-.14 4.19-.14 7.92 0 12.3 2.77 12.3 9.59s-4.37 10.62-11.25 10.62ZM61.81 216.51c-1.51.43-4.24.71-6.97.71-2.12 0-3.8-.14-5.48-.21-.18-2.92-.22-7.05-.22-12.02.99-.03 1.99-.1 3.53-.1 5.38 0 5.89.71 5.89 4.64h1.86c-.04-1.71-.13-3.85-.13-5.77 0-1.68.09-3.61.13-5.28h-1.86c0 3.49-.51 4.13-3.48 4.13s-4.52-.04-5.95-.07c0-3.63-.09-7.69.13-10.9 1.08-.18 2.42-.35 3.89-.35 2.98 0 5.97.17 8.39.63.36 1.29.43 2.58.61 4.93h1.72c.13-2.98.4-5.35.78-7.41-1.98-.36-5.06-.51-7.53-.51-2.23 0-4.54.1-6.78.21-2.21.14-4.46.29-6.75.29-2.16 0-3.93-.15-5.85-.22v1.71c4.68 0 5.77.21 5.77 4.35v17.47c0 4.41-.36 5.2-5.33 5.2v1.71c3.03-.07 5.23-.17 8.01-.17 2.98 0 6.02.17 9.64.17 2.9 0 5.97-.07 8.43-.29.26-2.42.43-5.27.49-8.47h-1.61c-.31 2.07-.75 3.92-1.35 5.63ZM76.21 196.56c0-3.42 2.65-5.77 6.62-5.77 2.41 0 3.74.43 5.17 1.49.81.61 1.19 1.59 1.24 4.57h1.72c0-2.35.08-3.95.51-6.2-1.38-.71-3.71-2.09-8.39-2.09-6.66 0-11.86 3.73-11.86 10.01 0 13.11 16.87 3.07 16.87 12.61 0 4.94-3.85 6.91-7.7 6.91-4.89 0-6.92-1.92-6.92-6.55H71.7c0 3.49-.05 4.92-.35 7.05 2.17 1.07 4.33 1.78 8.39 1.78 8.01 0 13.59-4.85 13.59-10.97 0-12.69-17.13-3.06-17.13-12.82ZM98.32 189.22l.27 8.13h1.73l.13-2.49c.12-2.35.66-3.06 6.05-3.06h3.25v22.74c0 2.99-1 3.42-5.32 3.42v1.71c2.77-.07 5.62-.17 8.43-.17 2.6 0 5.15.1 7.69.17v-1.71c-4.36 0-5.23-.72-5.23-3.42V191.8h3.12c5.41 0 5.96.71 6.1 3.06l.13 2.49h1.72l.26-8.13c-2.98.22-7.49.22-14.19.22s-11.16 0-14.15-.22ZM166.92 176.48c-3.33.06-6.92.2-10.56.2s-7.05-.14-11.16-.2v1.9l2.77.16c1.55.14 2.24.43 2.68 1.07.43.65.63 2.35.63 4.56v27.86c0 2.35-.11 3.99-.54 4.63-.4.64-1.12.89-2.64.93l-2.99.21v1.85c3.25-.15 6.18-.17 9.22-.17 2.85 0 5.75.02 9 .17v-1.85l-2.98-.21c-1.47-.04-2.24-.29-2.6-.93-.43-.64-.57-2.28-.57-4.63v-32.42c1.74-.42 3.55-.73 6.32-.73 6.17 0 10.08 2.8 10.08 9.22 0 5.3-3.91 9.26-8.95 9.26-1.33 0-2.72-.14-4.1-.59l.64 2.23c1.25.22 2.47.36 3.72.36 8.19 0 14.92-5.56 14.92-13.33 0-7.05-6.83-9.62-12.89-9.53ZM207.79 216.3c-1.73.64-5.18.86-9.03.86-1.79 0-2.99-.07-4.25-.1-.17-1.97-.26-3.68-.26-5.8v-16.44c0-3.82 1.38-3.86 5.37-3.86v-1.75c-3.42.07-6.51.22-8.57.22-2.87 0-5.11-.15-7.96-.22v1.75c4.58 0 5.58.04 5.58 2.91v19.14c0 4.06-.87 4.49-3.59 4.92v1.71c2.16-.07 3.85-.17 6.45-.17 2.94 0 4.72.17 10.68.17 2.73 0 5.58-.07 7.67-.17.16-2.91.46-5.53 1.03-8.22h-1.86l-1.25 5.03ZM244.08 213.09l-10.82-24.54h-2.38l-10.29 22.68c-2.82 6.32-3.81 6.71-6.58 6.71v1.71c2.77-.07 4.2-.17 6.08-.17 2.23 0 4.39.1 6.47.17v-1.71c-3.15 0-4.58-.5-4.58-2.28 0-2.28 1.52-4.35 2.06-5.63 2.13-.07 4.25-.14 6.27-.14 2.23 0 4.31.07 6.41.14.82 1.73 2.52 4.85 2.52 6.2 0 1.21-.95 1.71-4.62 1.71v1.71c2.76-.07 5.05-.17 7.64-.17s6.4.1 7.39.17v-1.71c-2.38 0-3.67-.29-5.57-4.85m-13.93-5.56c-1.8 0-3.41-.07-5.01-.12l5.45-12.14 5.23 12.14c-2.09.05-3.68.12-5.68.12ZM270.74 217.59c-8.93 0-13.2-6.2-13.2-13.33 0-8.4 4.85-13.46 11.37-13.46 5.15 0 7.7 1.85 9.39 3.85l.27 4.2h1.73c0-1.6.14-4.99.73-8.05-2.86-1.29-8.09-2.24-11.37-2.24-10.43 0-18.29 5.73-18.29 16.21 0 8.98 7.17 15.61 16.99 15.61 5.81 0 10.29-1.56 12.18-3.14l.9-2.35-.81-.43c-2.88 2.28-5.7 3.14-9.88 3.14ZM311.08 210.88c-.29 2.07-.72 3.92-1.39 5.63-1.46.43-4.18.71-6.93.71-2.1 0-3.79-.14-5.48-.21-.17-2.92-.26-7.05-.26-12.02.99-.03 1.99-.1 3.55-.1 5.41 0 5.94.71 5.94 4.64h1.85c-.1-1.71-.13-3.85-.13-5.77 0-1.68.04-3.61.13-5.28h-1.85c0 3.49-.53 4.13-3.52 4.13s-4.53-.04-5.97-.07c0-3.63-.04-7.69.13-10.9 1.13-.18 2.42-.35 3.94-.35 3 0 5.98.17 8.41.63.33 1.29.43 2.58.59 4.93h1.73c.13-2.98.4-5.35.73-7.41-1.98-.36-5.01-.51-7.45-.51-2.27 0-4.56.1-6.81.21-2.23.14-4.46.29-6.74.29s-3.94-.15-5.84-.22v1.71c4.61 0 5.74.21 5.74 4.35v17.47c0 4.41-.33 5.2-5.31 5.2v1.71c3.02-.07 5.18-.17 8-.17 2.99 0 6.02.17 9.62.17 2.92 0 5.94-.07 8.46-.29.24-2.42.43-5.27.47-8.47h-1.61ZM319.18 189.21c.38.98.91 1.82 1.6 2.53s1.53 1.26 2.5 1.66 2.05.59 3.25.59c.75 0 1.46-.1 2.14-.28.68-.19 1.32-.45 1.91-.8.59-.34 1.12-.76 1.61-1.25s.9-1.03 1.24-1.62.61-1.23.79-1.91c.19-.68.28-1.39.28-2.13s-.09-1.46-.26-2.14a7.9 7.9 0 0 0-1.94-3.56c-.47-.49-.99-.91-1.58-1.26s-1.23-.62-1.93-.82c-.7-.19-1.44-.29-2.22-.29s-1.5.1-2.2.29c-.69.19-1.33.46-1.93.82q-.885.525-1.59 1.26c-.47.49-.87 1.03-1.21 1.63-.33.6-.59 1.24-.77 1.93s-.26 1.4-.26 2.14c0 1.16.19 2.23.56 3.21Zm1.02-5.04c.14-.59.34-1.15.61-1.68.26-.53.59-1.01.97-1.45s.82-.82 1.3-1.14 1.01-.56 1.59-.74q.87-.27 1.86-.27c.99 0 1.3.09 1.88.27.59.18 1.13.42 1.62.74q.735.48 1.32 1.14c.39.44.72.93.99 1.45.27.53.47 1.09.62 1.68a7.792 7.792 0 0 1 .01 3.63 7.1 7.1 0 0 1-1.58 3.07c-.38.43-.82.8-1.3 1.11-.49.31-1.02.55-1.61.73-.59.17-1.22.26-1.89.26s-1.33-.09-1.92-.26c-.6-.17-1.14-.42-1.62-.73-.49-.31-.92-.68-1.3-1.11s-.7-.9-.96-1.42-.46-1.07-.59-1.65c-.13-.59-.2-1.19-.2-1.81s.07-1.23.21-1.82Zm5.03 2.32c.07.01.17.02.29.03h.38c.18 0 .32 0 .42-.03.2.29.43.64.69 1.02.25.39.53.79.82 1.2.33.47.62.84.85 1.12.24.27.45.44.66.49h1.74v-.69c-.14 0-.28-.02-.42-.07-.13-.05-.29-.16-.47-.33s-.39-.42-.64-.75-.56-.78-.94-1.35c-.17-.24-.33-.43-.47-.55-.14-.13-.27-.22-.38-.27v-.02c.47-.13.86-.3 1.17-.52.31-.21.56-.44.75-.7.19-.25.32-.51.4-.77s.12-.5.12-.73c0-.39-.08-.75-.25-1.08-.16-.33-.42-.61-.76-.84-.34-.24-.78-.42-1.32-.55s-1.17-.2-1.91-.2h-.81c-.29 0-.57.01-.85.02l-.82.03c-.26.01-.5.02-.71.02v.84l1.01-.1q-.03.195-.03.45v5.76c0 .24 0 .45-.01.65 0 .2-.04.36-.1.51-.06.14-.15.25-.29.33s-.32.12-.56.13v.68h3.41v-.79l-1 .04c.01-.12.02-.27.03-.44v-2.56Zm0-3.01c0-.26 0-.49.01-.7 0-.21.04-.39.12-.53.07-.15.19-.26.35-.34q.24-.12.72-.12c.28 0 .56.04.82.12.27.08.5.2.71.36s.37.35.5.58c.12.23.19.5.19.8 0 .28-.05.53-.14.73q-.135.315-.36.54c-.15.15-.32.27-.52.37-.19.1-.39.18-.59.23-.2.06-.4.1-.59.12q-.285.03-.51.03h-.35c-.12 0-.23-.02-.34-.03h-.02v-2.17Z" /></g></svg>
